# Blender v3.2.2 OBJ File: 'Rock1.blend'
# www.blender.org
mtllib Rock1.mtl
o Rock_Circle
v 0.022498 -0.018145 -0.196152
v -0.115553 -0.017106 -0.138222
v -0.177941 -0.018327 -0.013022
v -0.103891 -0.009822 0.151981
v 0.022128 -0.020456 0.197874
v 0.162046 -0.020456 0.139918
v 0.220527 -0.020091 -0.000000
v 0.170690 -0.025843 -0.151865
v 0.027674 0.072288 -0.192822
v -0.113234 0.070916 -0.140179
v -0.153247 0.069376 -0.000069
v -0.113093 0.071795 0.140169
v 0.026941 0.065271 0.228896
v 0.185793 0.066582 0.159270
v 0.268290 0.076718 -0.003191
v 0.162509 0.069991 -0.136183
v 0.007824 0.141295 -0.233070
v -0.117319 0.138920 -0.155435
v -0.194072 0.152887 -0.020831
v -0.121342 0.116887 0.106488
v -0.021344 0.113520 0.193781
v 0.146863 0.107565 0.119153
v 0.246163 0.131713 0.022245
v 0.154526 0.122217 -0.151202
v -0.055464 0.172645 -0.125037
v -0.147500 0.183526 -0.092128
v -0.184801 0.182304 -0.000026
v -0.118794 0.161832 0.071482
v -0.054847 0.196028 0.141288
v 0.038197 0.187546 0.094174
v 0.075031 0.190950 0.000457
v 0.037768 0.190880 -0.094842
v -0.059058 0.196488 -0.090372
v -0.121514 0.196249 -0.062105
v -0.152247 0.211498 -0.000097
v -0.128889 0.217966 0.068625
v -0.058918 0.210008 0.094696
v 0.006791 0.220018 0.065826
v 0.038591 0.242200 -0.000363
v 0.002075 0.196577 -0.061605
v -0.136325 0.012039 0.032626
v -0.120340 0.001198 0.084036
v -0.106539 0.039586 0.156959
v -0.182641 0.008213 0.159448
v -0.236694 0.006373 0.135739
v -0.247063 -0.002450 0.084988
v -0.234749 0.016756 0.039081
v -0.187515 0.013678 0.009091
v -0.187348 -0.018766 -0.017147
v -0.249650 -0.019127 0.020712
v -0.273424 -0.019734 0.084385
v -0.251340 -0.018464 0.150309
v -0.184601 -0.024225 0.183537
v -0.108092 -0.008087 0.159770
v -0.095220 -0.020457 0.084525
v -0.121649 -0.020457 0.020719
v -0.146064 0.048680 0.044700
v -0.135024 0.043675 0.073163
v -0.151040 0.050848 0.111059
v -0.192856 0.061458 0.118617
v -0.224574 0.038225 0.104685
v -0.223983 0.023767 0.081889
v -0.203630 0.023032 0.068098
v -0.185055 0.044018 0.044081
v -0.180193 0.053952 0.068576
v -0.178114 0.063089 0.076978
v -0.184555 0.069279 0.088192
v -0.198451 0.069422 0.091463
v -0.213354 0.057580 0.086180
v -0.209560 0.044495 0.082025
v -0.191727 0.027072 0.088759
v -0.181880 0.028926 0.083620
v 0.213611 -0.020410 -0.090115
v 0.150439 -0.020764 -0.063016
v 0.124337 -0.020764 0.000000
v 0.150439 -0.020764 0.063016
v 0.213851 -0.019762 0.091664
v 0.283759 -0.025304 0.065022
v 0.309238 -0.037369 -0.001722
v 0.291254 -0.016873 -0.074158
v 0.215174 0.045032 -0.119366
v 0.154747 0.022425 -0.058708
v 0.130429 0.022425 0.000000
v 0.154829 0.022670 0.058959
v 0.222506 0.041598 0.110165
v 0.282121 0.027756 0.059858
v 0.295448 0.012252 0.000778
v 0.297453 0.032707 -0.071678
v 0.224492 0.062080 -0.080437
v 0.174205 0.050664 -0.044233
v 0.155883 0.050664 0.000000
v 0.175262 0.053201 0.047030
v 0.232928 0.056474 0.076116
v 0.273625 0.050381 0.045303
v 0.281179 0.052477 0.002266
v 0.281013 0.056985 -0.047545
v 0.259283 0.095052 -0.020169
v 0.244133 0.099009 -0.014093
v 0.233624 0.091849 -0.001203
v 0.238977 0.080522 0.010125
v 0.254095 0.070620 0.014301
v 0.263714 0.071110 0.009306
v 0.268395 0.079423 -0.002563
v 0.267822 0.086946 -0.015063
vt 0.000000 0.000000
vt 0.000000 0.000000
vt 0.000000 0.000000
vt 0.000000 0.000000
vt 0.000000 0.000000
vt 0.000000 0.000000
vt 0.000000 0.000000
vt 0.000000 0.000000
vt 0.000000 0.000000
vt 0.000000 0.000000
vt 0.000000 0.000000
vt 0.000000 0.000000
vt 0.000000 0.000000
vt 0.000000 0.000000
vt 0.000000 0.000000
vt 0.000000 0.000000
vt 0.000000 0.000000
vt 0.000000 0.000000
vt 0.000000 0.000000
vt 0.000000 0.000000
vt 0.000000 0.000000
vt 0.000000 0.000000
vt 0.000000 0.000000
vt 0.000000 0.000000
vt 0.000000 0.000000
vt 0.000000 0.000000
vt 0.000000 0.000000
vt 0.000000 0.000000
vt 0.000000 0.000000
vt 0.000000 0.000000
vt 0.000000 0.000000
vt 0.000000 0.000000
vt 0.000000 0.000000
vt 0.000000 0.000000
vt 0.000000 0.000000
vt 0.000000 0.000000
vt 0.000000 0.000000
vt 0.000000 0.000000
vt 0.000000 0.000000
vt 0.000000 0.000000
vt 0.000000 0.000000
vt 0.000000 0.000000
vt 0.000000 0.000000
vt 0.000000 0.000000
vt 0.000000 0.000000
vt 0.000000 0.000000
vt 0.000000 0.000000
vt 0.000000 0.000000
vt 0.000000 0.000000
vt 0.000000 0.000000
vt 0.000000 0.000000
vt 0.000000 0.000000
vt 0.000000 0.000000
vt 0.000000 0.000000
vt 0.000000 0.000000
vt 0.000000 0.000000
vt 0.000000 0.000000
vt 0.000000 0.000000
vt 0.000000 0.000000
vt 0.000000 0.000000
vt 0.000000 0.000000
vt 0.000000 0.000000
vt 0.000000 0.000000
vt 0.000000 0.000000
vt 0.000000 0.000000
vt 0.000000 0.000000
vt 0.000000 0.000000
vt 0.000000 0.000000
vt 0.000000 0.000000
vt 0.000000 0.000000
vt 0.000000 0.000000
vt 0.000000 0.000000
vt 0.000000 0.000000
vt 0.000000 0.000000
vt 0.000000 0.000000
vt 0.000000 0.000000
vt 0.000000 0.000000
vt 0.000000 0.000000
vt 0.000000 0.000000
vt 0.000000 0.000000
vt 0.000000 0.000000
vt 0.000000 0.000000
vt 0.000000 0.000000
vt 0.000000 0.000000
vt 0.000000 0.000000
vt 0.000000 0.000000
vt 0.000000 0.000000
vt 0.000000 0.000000
vt 0.000000 0.000000
vt 0.000000 0.000000
vt 0.000000 0.000000
vt 0.000000 0.000000
vt 0.000000 0.000000
vt 0.000000 0.000000
vt 0.000000 0.000000
vt 0.000000 0.000000
vt 0.000000 0.000000
vt 0.000000 0.000000
vt 0.000000 0.000000
vt 0.000000 0.000000
vt 0.000000 0.000000
vt 0.000000 0.000000
vt 0.000000 0.000000
vt 0.000000 0.000000
vn -0.0198 -0.9998 0.0084
vn 0.8011 0.2765 -0.5308
vn 0.8706 -0.1485 -0.4691
vn 0.3738 -0.3160 0.8720
vn -0.9343 0.0832 0.3466
vn -0.3684 0.0226 -0.9294
vn 0.3373 0.1010 -0.9360
vn 0.8490 -0.3639 0.3832
vn -0.4544 -0.1133 0.8836
vn -0.9209 0.1637 -0.3537
vn 0.3602 0.8518 0.3804
vn 0.2707 0.7613 0.5892
vn -0.9121 -0.1955 0.3603
vn -0.3978 -0.4033 -0.8240
vn 0.4023 -0.3017 -0.8644
vn 0.6715 0.5095 0.5380
vn -0.5682 0.2367 0.7881
vn -0.8702 -0.3422 -0.3544
vn -0.1201 0.8815 -0.4567
vn -0.6902 0.2881 0.6638
vn -0.8555 0.2643 -0.4453
vn 0.3754 0.9023 -0.2122
vn 0.3544 0.6366 0.6849
vn -0.7642 0.2361 0.6003
vn -0.2176 0.8428 -0.4923
vn 0.1740 0.9143 -0.3657
vn -0.0840 0.9894 -0.1184
vn 0.0359 0.9238 -0.3811
vn 0.6477 0.6584 0.3834
vn -0.5860 0.3846 0.7132
vn -0.4602 0.8426 -0.2798
vn 0.4301 0.7917 -0.4338
vn 0.2042 0.8724 0.4441
vn -0.8097 0.2316 0.5392
vn 0.0163 -0.9998 0.0080
vn 0.4061 0.5301 -0.7444
vn -0.3278 0.5920 0.7363
vn 0.0648 0.3151 0.9468
vn 0.7623 0.6074 -0.2235
vn 0.9228 0.2887 -0.2550
vn 0.9423 0.3149 -0.1138
vn -0.7589 0.6371 -0.1348
vn -0.6886 0.7134 0.1298
vn -0.4273 0.5571 -0.7121
vn -0.8284 0.3188 -0.4606
vn 0.7662 0.5996 -0.2312
vn -0.0828 0.7739 0.6278
vn -0.5097 0.8603 -0.0127
vn 0.1930 0.5781 -0.7928
vn -0.4637 0.5778 0.6717
vn -0.4447 0.8579 -0.2575
vn -0.8654 0.4993 -0.0430
vn -0.3469 0.1198 -0.9302
vn 0.2361 0.9528 -0.1908
vn -0.6214 0.7613 -0.1854
vn 0.4500 0.8923 -0.0370
vn 0.1165 0.5631 -0.8181
vn 0.2369 0.9234 0.3020
vn -0.6506 0.6843 0.3293
vn -0.4239 0.8660 0.2652
vn -0.0484 -0.9987 -0.0171
vn 0.9129 0.3970 0.0948
vn 0.3483 -0.2347 -0.9075
vn 0.9535 0.1500 0.2612
vn -0.5135 -0.0541 0.8564
vn -0.9161 0.1292 -0.3795
vn 0.9930 0.0804 -0.0868
vn 0.4919 -0.1305 0.8608
vn -0.9164 0.1286 0.3791
vn -0.5519 -0.1582 -0.8187
vn 0.7509 0.5978 0.2807
vn 0.5520 0.6495 0.5230
vn -0.7270 0.6252 0.2839
vn -0.5431 0.7617 -0.3533
vn 0.3769 0.7937 -0.4776
vn 0.9211 0.3629 0.1407
vn -0.4356 0.7693 0.4674
vn -0.7100 0.6399 -0.2941
vn 0.3206 0.7426 0.5880
vn -0.0680 0.9394 0.3361
vn -0.4929 0.8586 -0.1412
vn 0.9192 0.3884 0.0641
vn 0.3461 0.8704 0.3502
vn -0.3547 0.8907 0.2845
vn -0.3421 0.8604 -0.3777
vn 0.4690 0.6763 -0.5681
g Rock_Circle_Rock
usemtl Rock
s off
f 2/1/1 1/2/1 8/3/1 7/4/1 6/5/1 5/6/1 4/7/1 3/8/1
f 15/9/2 16/10/2 24/11/2 23/12/2
f 7/4/3 8/3/3 16/10/3 15/9/3
f 5/6/4 6/5/4 14/13/4 13/14/4
f 3/8/5 4/7/5 12/15/5 11/16/5
f 1/2/6 2/1/6 10/17/6 9/18/6
f 8/3/7 1/2/7 9/18/7 16/10/7
f 6/5/8 7/4/8 15/9/8 14/13/8
f 4/7/9 5/6/9 13/14/9 12/15/9
f 2/1/10 3/8/10 11/16/10 10/17/10
f 22/19/11 23/12/11 31/20/11 30/21/11
f 13/14/12 14/13/12 22/19/12 21/22/12
f 11/16/13 12/15/13 20/23/13 19/24/13
f 9/18/14 10/17/14 18/25/14 17/26/14
f 16/10/15 9/18/15 17/26/15 24/11/15
f 14/13/16 15/9/16 23/12/16 22/19/16
f 12/15/17 13/14/17 21/22/17 20/23/17
f 10/17/18 11/16/18 19/24/18 18/25/18
f 25/27/19 26/28/19 34/29/19 33/30/19
f 20/23/20 21/22/20 29/31/20 28/32/20
f 18/25/21 19/24/21 27/33/21 26/28/21
f 23/12/22 24/11/22 32/34/22 31/20/22
f 21/22/23 22/19/23 30/21/23 29/31/23
f 19/24/24 20/23/24 28/32/24 27/33/24
f 17/26/25 18/25/25 26/28/25 25/27/25
f 24/11/26 17/26/26 25/27/26 32/34/26
f 34/29/27 35/35/27 36/36/27 37/37/27 38/38/27 39/39/27 40/40/27 33/30/27
f 32/34/28 25/27/28 33/30/28 40/40/28
f 30/21/29 31/20/29 39/39/29 38/38/29
f 28/32/30 29/31/30 37/37/30 36/36/30
f 26/28/31 27/33/31 35/35/31 34/29/31
f 31/20/32 32/34/32 40/40/32 39/39/32
f 29/31/33 30/21/33 38/38/33 37/37/33
f 27/33/34 28/32/34 36/36/34 35/35/34
f 50/41/35 49/42/35 56/43/35 55/44/35 54/45/35 53/46/35 52/47/35 51/48/35
f 56/43/36 49/42/36 48/49/36 41/50/36
f 52/47/37 53/46/37 44/51/37 45/52/37
f 53/46/38 54/45/38 43/53/38 44/51/38
f 55/44/39 56/43/39 41/50/39 42/54/39
f 42/54/40 41/50/40 57/55/40 58/56/40
f 54/45/41 55/44/41 42/54/41 43/53/41
f 50/41/42 51/48/42 46/57/42 47/58/42
f 51/48/43 52/47/43 45/52/43 46/57/43
f 49/42/44 50/41/44 47/58/44 48/49/44
f 62/59/45 61/60/45 69/61/45 70/62/45
f 43/53/46 42/54/46 58/56/46 59/63/46
f 44/51/47 43/53/47 59/63/47 60/64/47
f 47/58/48 46/57/48 62/59/48 63/65/48
f 41/50/49 48/49/49 64/66/49 57/55/49
f 45/52/50 44/51/50 60/64/50 61/60/50
f 48/49/51 47/58/51 63/65/51 64/66/51
f 46/57/52 45/52/52 61/60/52 62/59/52
f 71/67/53 70/62/53 69/61/53 68/68/53 67/69/53 66/70/53 65/71/53 72/72/53
f 58/56/54 57/55/54 65/71/54 66/70/54
f 57/55/55 64/66/55 72/72/55 65/71/55
f 59/63/56 58/56/56 66/70/56 67/69/56
f 63/65/57 62/59/57 70/62/57 71/67/57
f 60/64/58 59/63/58 67/69/58 68/68/58
f 61/60/59 60/64/59 68/68/59 69/61/59
f 64/66/60 63/65/60 71/67/60 72/72/60
f 74/73/61 73/74/61 80/75/61 79/76/61 78/77/61 77/78/61 76/79/61 75/80/61
f 87/81/62 88/82/62 96/83/62 95/84/62
f 80/75/63 73/74/63 81/85/63 88/82/63
f 78/77/64 79/76/64 87/81/64 86/86/64
f 76/79/65 77/78/65 85/87/65 84/88/65
f 74/73/66 75/80/66 83/89/66 82/90/66
f 79/76/67 80/75/67 88/82/67 87/81/67
f 77/78/68 78/77/68 86/86/68 85/87/68
f 75/80/69 76/79/69 84/88/69 83/89/69
f 73/74/70 74/73/70 82/90/70 81/85/70
f 94/91/71 95/84/71 103/92/71 102/93/71
f 85/87/72 86/86/72 94/91/72 93/94/72
f 83/89/73 84/88/73 92/95/73 91/96/73
f 81/85/74 82/90/74 90/97/74 89/98/74
f 88/82/75 81/85/75 89/98/75 96/83/75
f 86/86/76 87/81/76 95/84/76 94/91/76
f 84/88/77 85/87/77 93/94/77 92/95/77
f 82/90/78 83/89/78 91/96/78 90/97/78
f 98/99/79 99/100/79 100/101/79 101/102/79 102/93/79 103/92/79 104/103/79 97/104/79
f 92/95/80 93/94/80 101/102/80 100/101/80
f 90/97/81 91/96/81 99/100/81 98/99/81
f 95/84/82 96/83/82 104/103/82 103/92/82
f 93/94/83 94/91/83 102/93/83 101/102/83
f 91/96/84 92/95/84 100/101/84 99/100/84
f 89/98/85 90/97/85 98/99/85 97/104/85
f 96/83/86 89/98/86 97/104/86 104/103/86
